<?xml version="1.0" standalone="no"?>
<!DOCTYPE svg PUBLIC "-//W3C//DTD SVG 20010904//EN"
 "http://www.w3.org/TR/2001/REC-SVG-20010904/DTD/svg10.dtd">
<svg version="1.0" xmlns="http://www.w3.org/2000/svg"
 width="394.000000pt" height="394.000000pt" viewBox="0 0 394.000000 394.000000"
 preserveAspectRatio="xMidYMid meet">
<metadata>
Created by potrace 1.11, written by Peter Selinger 2001-2013
</metadata>
<g transform="translate(0.000000,394.000000) scale(0.100000,-0.100000)"
fill="#000000" stroke="none">
<path d="M0 1970 l0 -1650 1970 0 1970 0 0 1650 0 1650 -1970 0 -1970 0 0
-1650z m1156 1210 c18 -12 43 -41 56 -68 l23 -47 -3 -565 c-2 -311 1 -638 7
-728 9 -152 11 -166 35 -197 36 -47 82 -60 175 -49 175 19 239 4 292 -69 54
-75 31 -189 -48 -238 l-38 -24 -439 4 c-294 2 -497 -1 -616 -10 -163 -11 -180
-11 -221 5 -54 22 -76 41 -100 88 -34 67 -20 137 39 201 44 47 103 57 276 50
180 -7 215 1 251 56 22 33 26 53 35 201 5 91 10 283 10 427 0 287 -14 461 -37
470 -23 9 -70 -18 -163 -92 -111 -89 -145 -109 -203 -124 -87 -21 -164 16
-208 101 -26 51 -24 84 9 140 23 40 98 108 118 108 4 0 40 20 81 45 40 25 76
45 78 45 9 0 233 139 308 191 43 30 95 64 115 76 49 29 123 30 168 3z m1829 0
c22 -6 65 -18 95 -27 138 -39 328 -156 418 -258 52 -59 121 -162 157 -232 66
-133 115 -362 115 -540 0 -92 -24 -327 -40 -398 -7 -27 -19 -79 -27 -115 -30
-129 -93 -298 -165 -439 -151 -298 -412 -536 -680 -622 -74 -23 -113 -24 -175
-3 -63 21 -109 66 -129 126 -14 43 -14 53 0 100 28 99 124 162 335 223 13 4
60 25 104 48 87 44 171 119 224 201 41 62 68 152 56 186 -8 23 -13 25 -73 25
-36 -1 -129 -11 -208 -23 -231 -36 -418 -25 -597 33 -225 74 -403 221 -500
413 -76 152 -105 391 -70 592 44 256 194 474 417 604 60 35 205 85 283 97 33
6 83 14 110 19 65 11 299 5 350 -10z"/>
<path d="M2660 2856 c-122 -27 -246 -111 -312 -213 -51 -78 -71 -128 -93 -231
-19 -91 -19 -148 -1 -234 42 -202 151 -343 311 -406 155 -60 384 -49 545 26
107 51 200 155 243 272 20 57 47 199 47 252 0 46 -23 144 -47 203 -16 40 -82
136 -112 165 -60 58 -149 112 -246 148 -86 32 -235 40 -335 18z"/>
</g>
</svg>
