<?xml version="1.0" standalone="no"?>
<!DOCTYPE svg PUBLIC "-//W3C//DTD SVG 20010904//EN"
 "http://www.w3.org/TR/2001/REC-SVG-20010904/DTD/svg10.dtd">
<svg version="1.0" xmlns="http://www.w3.org/2000/svg"
 width="300.000000pt" height="300.000000pt" viewBox="0 0 300.000000 300.000000"
 preserveAspectRatio="xMidYMid meet">
<metadata>
Created by potrace 1.11, written by Peter Selinger 2001-2013
</metadata>
<g transform="translate(0.000000,300.000000) scale(0.100000,-0.100000)"
fill="#000000" stroke="none">
<path d="M1285 2984 c-49 -7 -101 -17 -115 -20 -14 -4 -31 -8 -37 -10 -19 -4
-145 -44 -168 -53 -59 -24 -173 -78 -195 -92 -14 -8 -53 -34 -88 -57 -35 -23
-67 -42 -72 -42 -5 0 -10 -3 -12 -7 -1 -5 -29 -30 -61 -57 -217 -182 -383
-430 -467 -698 -16 -51 -31 -106 -34 -123 -3 -16 -8 -41 -11 -55 -28 -117 -26
-413 3 -555 33 -155 92 -326 136 -390 12 -16 20 -31 18 -33 -5 -5 69 -124 114
-182 87 -115 164 -195 280 -289 68 -56 265 -175 330 -199 16 -6 58 -22 94 -35
72 -27 215 -62 300 -74 128 -17 383 -8 496 18 27 6 60 13 73 15 14 3 28 7 33
10 5 3 20 7 34 10 49 9 234 88 298 127 156 96 238 159 344 267 60 62 161 193
206 267 72 121 148 303 172 413 32 152 38 199 38 340 1 136 -8 272 -18 289 -2
3 -7 22 -10 41 -7 47 -35 145 -62 215 -4 11 -8 26 -10 32 -8 38 -134 258 -193
337 -121 160 -305 325 -448 402 -50 27 -149 77 -168 84 -11 4 -36 15 -55 23
-34 14 -167 54 -213 63 -125 24 -135 25 -292 28 -92 2 -185 -2 -240 -10z"/>
</g>
</svg>
